<svg height="512pt" fill="#fff" viewBox="-51 0 512 512" width="512pt" xmlns="http://www.w3.org/2000/svg"><path d="m323.023438 133.773438h-29.160157l23.46875-23.464844v-48.550782c0-34.054687-27.707031-61.757812-61.761719-61.757812-34.050781 0-61.757812 27.703125-61.757812 61.757812v48.550782l23.46875 23.46875h-29.164062l-86.730469 86.730468v29.191407l54.414062 54.414062h29.832031l3.761719-3.761719v211.648438h53.59375l12.585938-12.582031 12.582031 12.582031h53.589844v-211.648438l3.765625 3.765626h29.832031l54.414062-54.414063v-29.195313zm-34.296876 15-12.160156 27.890624-2.675781-27.890624zm-41.804687 56.210937 5.390625-56.210937h6.511719l5.394531 56.210937-7.859375 18.015625h-1.585937zm-38.109375-100.886719v-42.339844c0-25.78125 20.976562-46.757812 46.757812-46.757812 25.785157 0 46.761719 20.976562 46.761719 46.757812v42.339844l-29.679687 29.679688h-34.160156zm28.429688 44.675782-2.675782 27.890624-12.160156-27.890624zm157.515624 94.714843-45.628906 45.625h-17.402344l-13.402343-13.398437 40.609375-40.609375-52.1875-52.1875v314.082031h-32.378906l-11.261719-11.261719c-.070313-153.347656 0-153.347656 0-153.347656h-15.070313v153.347656l-11.257812 11.261719h-32.382813v-314.082031l-52.1875 52.1875 40.609375 40.609375-13.398437 13.398437h-17.402344l-45.628906-45.625v-16.769531l77.945312-77.941406h11.710938c28.9375 66.363281 22.660156 51.964844 38.90625 89.222656h21.234375c16.011718-36.722656 10.320312-23.667969 38.90625-89.222656h11.722656l77.945312 77.941406zm-73.011718 7.589844v-31.949219l15.976562 15.976563zm-132.351563-31.949219v31.949219l-15.972656-15.976563zm0 0"/><path d="m136.472656 438.574219c-4.226562-2.480469-8.046875-3.242188-11.332031-3.898438-3.976563-.796875-6.605469-1.320312-10.300781-5.015625-5.820313-5.820312-3.972656-9.628906-6.875-17.355468l39.957031-39.953126-10.609375-10.609374-38.164062 38.167968c-6.269532-5.613281-11.855469-6.730468-16.410157-7.636718-3.980469-.796876-6.605469-1.320313-10.300781-5.015626-3.695312-3.691406-4.21875-6.320312-5.011719-10.300781-.910156-4.554687-2.027343-10.136719-7.640625-16.410156l52.832032-52.832031-10.605469-10.609375-54.625 54.625c-7.722657-2.902344-11.53125-1.050781-17.347657-6.871094-3.695312-3.691406-4.21875-6.320313-5.015624-10.296875-.695313-3.484375-1.511719-7.574219-4.371094-12.109375l73.535156-73.53125-10.605469-10.609375-83.582031 83.582031c7.96875 7.972657 8.824219 8.128907 10.316406 15.605469.984375 4.929688 2.207032 11.0625 9.113282 17.96875s13.042968 8.132812 17.972656 9.117188c3.976562.792968 6.605468 1.316406 10.296875 5.011718 3.695312 3.691406 4.222656 6.320313 5.015625 10.300782.984375 4.929687 2.207031 11.0625 9.113281 17.96875s13.042969 8.132812 17.972656 9.117187c3.976563.792969 6.605469 1.320313 10.300781 5.011719 3.691407 3.695312 4.21875 6.324218 5.011719 10.304687.988281 4.929688 2.210938 11.0625 9.117188 17.972657 6.910156 6.90625 13.042969 8.128906 17.972656 9.117187 7.570313 1.511719 7.570313 2.277344 16.320313 11.03125l44.300781-57.183594-11.855469-9.183593zm0 0"/><path d="m270.707031 121.578125-10.609375-10.605469 17.234375-17.230468v-27.949219h15v34.160156zm6.175781-64.226563c-.75-3.632812-2.449218-7.046874-4.910156-9.871093l11.308594-9.855469c4.152344 4.765625 7.019531 10.535156 8.292969 16.695312zm-10.652343-14.558593c-3.238281-1.828125-6.921875-2.792969-10.660157-2.792969v-15c6.316407 0 12.554688 1.636719 18.035157 4.734375zm0 0"/><path d="m136.296875 422.472656-11.859375-9.183594 37.035156-47.804687 11.855469 9.1875zm43.097656-60.859375h-15v-15h15zm0-25h-15v-15h15zm0 0"/><path d="m296.746094 477.566406h-15v-91.210937h15zm0-101.210937h-15v-15h15zm0-25h-15v-15h15zm0 0"/></svg>