<svg height="511pt" fill="#fff" viewBox="-70 1 511 511.99945" width="511pt" xmlns="http://www.w3.org/2000/svg"><path d="m353.039062 240.546875c-4.195312 0-7.601562 3.40625-7.601562 7.605469v92.808594c0 84.761718-120.65625 155.832031-159.136719 155.832031-22.214843 0-77.722656-25.824219-117.648437-67.871094-2.890625-3.039063-7.707032-3.171875-10.746094-.273437-3.042969 2.890624-3.175781 7.707031-.277344 10.75 40.628906 42.785156 100.414063 72.601562 128.671875 72.601562 24.59375 0 68.179688-20.84375 103.644531-49.566406 26.402344-21.382813 70.699219-65.597656 70.699219-121.472656v-92.808594c0-4.199219-3.40625-7.605469-7.605469-7.605469zm0 0"/><path d="m114.285156 288.566406 53.957032-28.824218c12.929687-6.316407 12.148437-24.902344-1.058594-30.25l-101.578125-41.15625c-2-.808594-4.097657-1.222657-6.230469-1.222657-9.136719 0-16.566406 7.441407-16.566406 16.585938v45.589843c0 8.539063 5 16.390626 12.738281 20.003907l42.253906 19.714843c5.242188 2.449219 11.359375 2.296876 16.484375-.441406zm-56.269531-39.277344v-45.589843c0-.988281.984375-1.632813 1.882813-1.265625l101.574218 41.152344c1.125.457031 1.164063 1.984374.070313 2.503906-.257813.121094-54.171875 28.925781-54.421875 29.0625-.890625.472656-1.980469.5-2.890625.078125l-42.253907-19.71875c-2.40625-1.125-3.960937-3.566407-3.960937-6.222657zm0 0"/><path d="m258.316406 288.566406c5.097656 2.722656 11.21875 2.902344 16.484375.441406l42.253907-19.714843c7.738281-3.613281 12.738281-11.464844 12.738281-20.003907v-45.589843c0-11.664063-11.824219-19.808594-22.800781-15.363281l-101.574219 41.152343c-13.234375 5.359375-13.96875 23.945313-1.058594 30.253907zm-47.191406-44.980468h.003906c.359375-.148438 101.703125-41.261719 102.09375-41.261719.550782 0 1.359375.4375 1.359375 1.375v45.589843c0 2.65625-1.554687 5.097657-3.960937 6.222657-45.65625 21.304687-43.148438 20.703125-45.140625 19.640625l-54.097657-28.894532c-.105468-.058593-.214843-.113281-.328124-.167968-1.089844-.519532-1.054688-2.046875.070312-2.503906zm0 0"/><path d="m175.953125 470.34375c6.730469 2.050781 13.867187 2.058594 20.636719 0 42.046875-12.773438 111.90625-62.203125 122.996094-115.574219 1.089843-5.253906-1.460938-10.707031-6.207032-13.261719l-118.570312-63.777343c-5.296875-2.851563-11.65625-2.910157-17.003906-.15625l-118.886719 61.152343c-4.742188 2.441407-7.355469 7.601563-6.503907 12.847657 8.902344 54.839843 81.128907 105.84375 123.539063 118.769531zm11.652344-179.222656 116.597656 62.722656c-11.296875 46.160156-75.097656 90.730469-112.03125 101.949219-3.863281 1.175781-7.9375 1.175781-11.785156.003906-40.480469-12.335937-103.496094-59.441406-112.574219-104.539063 126.386719-65.015624 117.734375-61.242187 119.792969-60.136718zm0 0"/><path d="m186.300781 361.441406c19.28125 0 34.96875-15.6875 34.96875-34.96875 0-4.199218-3.40625-7.601562-7.605469-7.601562-4.199218 0-7.601562 3.402344-7.601562 7.601562 0 10.898438-8.867188 19.761719-19.761719 19.761719-10.898437 0-19.761719-8.863281-19.761719-19.761719 0-4.199218-3.40625-7.601562-7.605468-7.601562-4.199219 0-7.601563 3.402344-7.601563 7.601562 0 19.28125 15.6875 34.96875 34.96875 34.96875zm0 0"/><path d="m350.820312 79.789062c-6.773437 0-9.066406 2.113282-22.933593 9.96875-22.101563-30.710937-53.9375-53.96875-90.945313-65.222656v-3.082031c0-8.738281-6.222656-16.304687-14.792968-17.984375-23-4.519531-47.632813-4.742188-71.730469.039062-8.554688 1.691407-14.761719 9.257813-14.761719 17.984376v3.042968c-37.003906 11.253906-68.839844 34.511719-90.941406 65.222656l-11.011719-6.238281c-3.558594-2.441406-7.675781-3.730469-11.921875-3.730469-11.742188 0-21.28125 9.542969-21.28125 21.261719v29.414063c0 9.042968 5.738281 17.101562 14.285156 20.0625l1.855469.648437c-3.0625 12.90625-4.683594 26.371094-4.683594 40.199219v149.585938c0 24.6875 8.628907 49.597656 25.660157 74.050781 1.480468 2.121093 3.84375 3.257812 6.246093 3.257812 6.109375 0 9.75-6.917969 6.234375-11.945312-15.21875-21.859375-22.933594-43.847657-22.933594-65.363281v-149.585938c0-12.09375 1.359376-23.875 3.925782-35.199219l32.15625 11.132813c3.964844 1.367187 8.304687-.730469 9.671875-4.707032 1.378906-3.964843-.726563-8.292968-4.691407-9.671874-.035156-.011719-48.402343-16.746094-48.464843-16.769532-2.421875-.839844-4.054688-3.132812-4.054688-5.695312v-29.414063c0-3.742187 3.152344-6.050781 6.074219-6.050781 2.128906 0-8.691406-5.6875 156.570312 87.921875 4.847657 2.734375 11.0625 2.734375 15.898438 0 166.226562-94.15625 154.257812-87.921875 156.570312-87.921875 2.917969 0 6.070313 2.308594 6.070313 6.050781v29.414063c0 2.5625-1.628906 4.855468-4.054687 5.695312-.46875.164063-166.367188 57.703125-166.839844 57.539063l-89.027344-30.824219c-3.972656-1.367188-8.304688.730469-9.671875 4.707031-1.378906 3.960938.730469 8.292969 4.695313 9.671875l89.035156 30.820313c3.351562 1.15625 7.082031 1.195312 10.542968 0l149.941407-51.898438c2.566406 11.324219 3.925781 23.105469 3.925781 35.191407v26.367187c0 4.210937 3.40625 7.605469 7.601562 7.605469 4.199219 0 7.605469-3.394532 7.605469-7.605469v-26.367187c0-13.832032-1.625-27.292969-4.683593-40.199219l1.855468-.640625c8.546875-2.960938 14.285156-11.019532 14.285156-20.0625v-29.414063c0-11.71875-9.542968-21.261719-21.28125-21.261719zm-164.0625 89.898438c-.285156.152344-.628906.152344-.902343 0l-127.828125-72.398438c19.230468-26.148437 46.261718-46.230468 77.628906-56.785156v53.96875c0 7.320313 3.277344 14.152344 9.003906 18.746094l26.644532 21.320312c8.757812 7 21.238281 6.992188 29.992187 0l26.652344-21.332031c5.71875-4.582031 8.992187-11.414062 8.992187-18.734375v-15.554687c0-4.195313-3.40625-7.601563-7.601562-7.601563-4.199219 0-7.605469 3.40625-7.605469 7.601563v15.554687c0 2.683594-1.207031 5.1875-3.296875 6.871094-28.859375 23.082031-28.019531 23.238281-32.136719 23.238281-4.144531 0-3.34375-.195312-32.128906-23.238281-2.101563-1.683594-3.304687-4.1875-3.304687-6.871094 0-78.09375-.074219-73.234375.128906-73.851562.316406-1.09375 1.21875-1.964844 2.375-2.191406 20.976562-4.152344 43.589844-4.421876 65.847656-.039063 1.1875.234375 2.101562 1.117187 2.402344 2.242187.175781.644532.113281-1.21875.113281 27.871094 0 4.195313 3.40625 7.601563 7.605469 7.601563 4.195312 0 7.601562-3.40625 7.601562-7.601563v-8c31.371094 10.554688 58.398438 30.636719 77.640625 56.785156zm0 0"/></svg>