<svg height="512pt" viewBox="0 0 512 512" width="512pt" xmlns="http://www.w3.org/2000/svg" fill="#fff"><path d="m446.144531 190.128906-28.144531-57.023437-28.144531 57.023437-62.925781 9.144532 45.535156 44.382812-10.75 62.675781 56.285156-29.589843 56.285156 29.589843-10.75-62.675781 45.535156-44.382812zm-11.703125 61.363282-16.441406-8.644532-16.441406 8.644532 3.140625-18.308594-13.300781-12.964844 18.382812-2.667969 8.21875-16.65625 8.222656 16.65625 18.378906 2.671875-13.300781 12.964844zm0 0"/><path d="m122.144531 190.128906-28.144531-57.023437-28.128906 56.996093-64.683594 9.171876 47.25 44.542968-10.722656 62.515625 56.285156-29.589843 56.285156 29.589843-10.75-62.675781 45.535156-44.382812zm-11.703125 61.363282-16.441406-8.644532-16.441406 8.644532 3.167968-18.464844-13.585937-12.808594 18.625-2.640625 8.234375-16.683594 8.222656 16.65625 18.378906 2.671875-13.300781 12.964844zm0 0"/><path d="m271 362h-60v30h30v30h-30v30h90v-30h-30zm0 0"/><path d="m512 512v-120h-151v-90h-210v60h-151v150zm-30-90v60h-121v-60zm-301-90h150v150h-150zm-151 150v-90h121v90zm0 0"/><path d="m298.050781 175.140625c6.34375-7.539063 12.828125-15.253906 18.210938-23.148437 19.945312-.070313 38.761719-8.300782 53.007812-23.199219 14.011719-14.660157 21.730469-33.765625 21.730469-53.792969v-45h-60v-30h-150v30h-60v45c0 20.027344 7.71875 39.132812 21.730469 53.792969 14.246093 14.898437 33.0625 23.128906 53.007812 23.199219 5.382813 7.894531 11.867188 15.609374 18.210938 23.148437 13.296875 15.808594 27.050781 32.152344 27.050781 45.792969v21.066406h-30v30h90v-30h-30v-21.066406c0-13.640625 13.753906-29.984375 27.050781-45.792969zm62.949219-115.140625v15c0 20.414062-13.234375 38.277344-31.046875 44.574219.695313-4.117188 1.046875-8.3125 1.046875-12.574219v-47zm-210 15v-15h30v47c0 4.261719.351562 8.457031 1.046875 12.574219-17.8125-6.296875-31.046875-24.160157-31.046875-44.574219zm85.90625 80.828125c-8.714844-10.359375-16.949219-20.144531-21.292969-28.953125-3.0625-6.203125-4.613281-12.890625-4.613281-19.875v-77h90v77c0 6.984375-1.550781 13.671875-4.613281 19.875-4.34375 8.808594-12.578125 18.59375-21.292969 28.953125-6.460938 7.679687-13.273438 15.777344-19.09375 24.320313-5.820312-8.542969-12.632812-16.640626-19.09375-24.320313zm0 0"/></svg>