<svg height="511pt" fill="#fff" viewBox="-17 0 511 511.99893" width="511pt" xmlns="http://www.w3.org/2000/svg"><path d="m67.917969 512h-35.117188c-17.8125 0-32.300781-14.492188-32.300781-32.300781v-53.5625c0-17.8125 14.488281-32.300781 32.300781-32.300781h35.117188c17.8125 0 32.300781 14.488281 32.300781 32.300781v53.5625c0 17.808593-14.488281 32.300781-32.300781 32.300781zm-35.117188-102.824219c-9.351562 0-16.960937 7.609375-16.960937 16.960938v53.5625c0 9.351562 7.609375 16.957031 16.960937 16.957031h35.117188c9.351562 0 16.957031-7.605469 16.957031-16.957031v-53.5625c0-9.351563-7.605469-16.960938-16.957031-16.960938zm0 0"/><path d="m194.003906 512h-35.117187c-17.8125 0-32.300781-14.492188-32.300781-32.300781v-113.257813c0-17.808594 14.488281-32.300781 32.300781-32.300781h35.117187c17.8125 0 32.300782 14.492187 32.300782 32.300781v113.257813c0 17.808593-14.488282 32.300781-32.300782 32.300781zm-35.117187-162.515625c-9.351563 0-16.960938 7.605469-16.960938 16.957031v113.257813c0 9.351562 7.609375 16.957031 16.960938 16.957031h35.117187c9.351563 0 16.957032-7.605469 16.957032-16.957031v-113.257813c0-9.351562-7.605469-16.957031-16.957032-16.957031zm0 0"/><path d="m320.089844 512h-35.117188c-17.8125 0-32.300781-14.492188-32.300781-32.300781v-186.355469c0-17.8125 14.488281-32.300781 32.300781-32.300781h35.117188c17.808594 0 32.300781 14.488281 32.300781 32.300781v186.355469c0 17.808593-14.492187 32.300781-32.300781 32.300781zm-35.117188-235.613281c-9.351562 0-16.957031 7.605469-16.957031 16.957031v186.355469c0 9.351562 7.605469 16.957031 16.957031 16.957031h35.117188c9.351562 0 16.957031-7.605469 16.957031-16.957031v-186.355469c0-9.351562-7.605469-16.957031-16.957031-16.957031zm0 0"/><path d="m446.175781 512h-35.117187c-17.8125 0-32.300782-14.492188-32.300782-32.300781v-314.03125c0-17.808594 14.488282-32.300781 32.300782-32.300781h35.117187c17.8125 0 32.300781 14.492187 32.300781 32.300781v224.378906c0 4.238281-3.433593 7.671875-7.671874 7.671875-4.234376 0-7.667969-3.433594-7.667969-7.671875v-224.378906c0-9.351563-7.609375-16.957031-16.960938-16.957031h-35.117187c-9.351563 0-16.957032 7.605468-16.957032 16.957031v314.03125c0 9.351562 7.605469 16.957031 16.957032 16.957031h35.117187c9.351563 0 16.960938-7.605469 16.960938-16.957031v-58.964844c0-4.238281 3.433593-7.671875 7.667969-7.671875 4.238281 0 7.671874 3.433594 7.671874 7.671875v58.964844c0 17.808593-14.488281 32.300781-32.300781 32.300781zm0 0"/><path d="m60.164062 282.28125c-2.59375 0-5.058593-1.320312-6.480468-3.570312-1.691406-2.675782-1.570313-6.117188.3125-8.664063l52.304687-70.75-55.210937-39.652344c-2.546875-1.832031-3.722656-5.027343-2.972656-8.074219.753906-3.042968 3.285156-5.324218 6.390624-5.753906.269532-.039062 27.507813-3.882812 65.515626-13.636718 4.109374-1.054688 8.285156 1.417968 9.335937 5.523437 1.050781 4.101563-1.417969 8.28125-5.523437 9.335937-20.058594 5.148438-36.996094 8.660157-48.855469 10.875l46.589843 33.460938c1.667969 1.199219 2.785157 3.011719 3.101563 5.042969.320313 2.027343-.1875 4.097656-1.410156 5.746093l-44.667969 60.417969c33.277344-8.496093 66.15625-21.824219 98-39.734375 30.648438-17.238281 60.417969-38.742187 88.484375-63.914062 47.925781-42.992188 74.574219-82.277344 74.835937-82.671875 1.28125-1.902344 3.34375-3.132813 5.625-3.355469 2.289063-.222656 4.546876.589844 6.167969 2.210938l10.726563 10.726562 14.574218-68.402344-68.058593 13.390625 12.839843 12.835938c1.511719 1.511719 2.324219 3.585937 2.242188 5.722656-.085938 2.136719-1.054688 4.144531-2.683594 5.53125-39.390625 33.675781-94.71875 61.546875-164.449218 82.839844-4.046876 1.238281-8.339844-1.042969-9.574219-5.097657-1.238281-4.050781 1.042969-8.339843 5.09375-9.574218 63.019531-19.246094 115.542969-44.929688 152.558593-74.535156l-17.050781-17.050782c-2-2.003906-2.738281-4.949218-1.910156-7.660156.824219-2.707031 3.074219-4.742188 5.855469-5.289062l93.582031-18.410157c2.53125-.496093 5.140625.308594 6.949219 2.144531 1.808594 1.835938 2.574218 4.460938 2.035156 6.980469l-19.945312 93.582031c-.582032 2.75-2.628907 4.957032-5.324219 5.753907-2.695313.800781-5.613281.058593-7.601563-1.929688l-14.308594-14.308593c-10.164062 13.71875-34.453124 44.308593-71.597656 77.683593-28.917968 25.980469-59.636718 48.199219-91.300781 66.03125-39.683594 22.355469-80.96875 37.847657-122.714844 46.054688-.492187.09375-.988281.144531-1.480469.144531zm0 0"/></svg>