<?xml version="1.0"?>
<svg xmlns="http://www.w3.org/2000/svg" viewBox="0 0 64 64" width="512" height="512"><g id="outline" color="#fff"><path fill="currentColor" d="M3,26H6v3a1,1,0,0,0,1,1h5v1a1,1,0,0,0,1,1H29a1,1,0,0,0,1-1V30h4v1a1,1,0,0,0,1,1h2.153l.861,5.165A1,1,0,0,0,39,38H49.719l2.311,9.243A1,1,0,0,0,53,48h8a1,1,0,0,0,.97-1.243L58.131,31.4,61.6,28.8A1,1,0,0,0,62,28V24a1,1,0,0,0-.4-.8l-4-3A1,1,0,0,0,57,20H12V17a1,1,0,0,0-1-1H5a1,1,0,0,0-1,1v3H3a1,1,0,0,0-1,1v4A1,1,0,0,0,3,26Zm5,2V26h4v2Zm20,2H26V28H24v2H22V28H20v2H18V28H16v2H14V26H28Zm2-2V26h4v2Zm9.847,8-.667-4h4.2l-1.277,2.553,1.79.894L45.618,32h2.6l1,4ZM53.781,46l-3.5-14h5.938l3.5,14ZM60,27.5,56.667,30H36V26H49a1,1,0,0,0,1-1V22h4.586l-2.293,2.293,1.414,1.414,3.387-3.387,1.241.931-3.042,3.042,1.414,1.414,3.244-3.244L60,24.5ZM48,24H36V22H48ZM6,18h4v2H6ZM4,22H34v2H4Z"/></g></svg>
