<svg height="512pt" fill="#fff" viewBox="-84 0 512 512" width="512pt" xmlns="http://www.w3.org/2000/svg"><path d="m235.492188 315.714844v-31.621094l11.652343 11.652344c8.808594-8.808594 93.234375-93.230469 96.253907-96.257813l-84.757813-84.757812h-51.109375v-9.941407l14.84375-14.84375v-39.269531c0-27.941406-22.730469-50.675781-50.675781-50.675781-27.941407 0-50.675781 22.734375-50.675781 50.675781v39.269531l14.84375 14.84375v9.941407h-51.105469l-84.761719 84.761719 96.253906 96.253906 11.652344-11.652344v31.617188c-2.730469 10.191406-49.828125 186.105468-52.554688 196.289062h44.75l19.769532-15.207031 20.664062-77.863281 25.136719-94.726563h12.054687l25.140626 94.726563 20.671874 77.898437 19.722657 15.171875h44.785156c-2.726563-10.1875-49.824219-186.097656-52.554687-196.285156zm0-90.882813v-50.683593l25.34375 25.339843c-9.300782 9.300781-15.753907 15.753907-25.34375 25.34375zm34.84375 26.511719-23.191407 23.1875-11.648437-11.648438v-16.835937l14.769531-14.773437c7.433594 7.429687 12.640625 12.636718 20.070313 20.070312zm-134.3125-200.667969c0-19.671875 16.003906-35.675781 35.675781-35.675781s35.675781 16.003906 35.675781 35.675781v33.054688l-22.71875 22.71875h-25.914062l-22.71875-22.71875zm-39.769532 223.855469-23.191406-23.1875 20.070312-20.070312 14.773438 14.773437v16.835937zm-13.6875-75.039062 25.339844-25.339844v50.679687c-8.464844-8.464843-16.867188-16.867187-25.339844-25.339843zm24.113282 288.523437-11.679688 8.984375h-20.101562l16.886718-63.070312h29.25zm82.585937-178.8125h-35.132813l-29.117187 109.726563h-29.214844l27.105469-101.246094c0-.945313 0-118.472656 0-118.472656l14.863281 14.863281h23.085938v-15h-16.875l-21.074219-21.074219v-20.667969l-13.714844-5.679687-47.839844 47.839844 21.175782 21.171874c-7.433594 7.433594-12.640625 12.640626-20.070313 20.070313l-41.246093-41.246094 69.761718-69.757812h59.894532v-9.941407l1.660156 1.660157h38.339844l1.664062-1.660157v9.941407h59.894531l69.761719 69.757812-41.246094 41.246094c-7.433594-7.433594-12.636718-12.636719-20.070312-20.070313l21.175781-21.171874-47.835937-47.839844-13.71875 5.683594v20.664062l-21.074219 21.074219h-16.875v15h23.085937l14.863282-14.863281v118.476562l27.105468 101.242188h-29.214844zm59.097656 187.796875-11.632812-8.949219-14.363281-54.121093h29.25l16.886718 63.070312zm0 0"/><path d="m179.199219 222.429688h-15v32.226562h-28.792969v15h72.585938v-15h-28.792969zm0 0"/><path d="m135.40625 282.070312h72.585938v15h-72.585938zm0 0"/><path d="m266.460938 288.886719 38.570312 138.921875-24.796875 6.257812 3.667969 14.542969 39.691406-10.015625-42.679688-153.71875zm0 0"/><path d="m62.484375 284.875-42.679687 153.71875 39.691406 10.019531 3.671875-14.546875-24.800781-6.257812 38.570312-138.921875zm0 0"/><path d="m143.652344 454.214844-3 14.695312c10.300781 2.101563 20.675781 3.152344 31.046875 3.152344 10.375 0 20.746093-1.050781 31.046875-3.152344l-2.996094-14.695312c-18.613281 3.796875-37.488281 3.796875-56.097656 0zm0 0"/><path d="m201.03125 165.167969c0-16.175781-13.15625-29.332031-29.332031-29.332031-16.171875 0-29.332031 13.15625-29.332031 29.332031 0 16.171875 13.160156 29.332031 29.332031 29.332031 16.175781 0 29.332031-13.160156 29.332031-29.332031zm-43.664062 0c0-7.902344 6.429687-14.332031 14.332031-14.332031 7.902343 0 14.332031 6.429687 14.332031 14.332031 0 7.902343-6.429688 14.332031-14.332031 14.332031-7.902344 0-14.332031-6.429688-14.332031-14.332031zm0 0"/><path d="m183.476562 93.488281-10.609374-10.605469 9.507812-9.507812v-22.699219c0-5.886719-4.789062-10.675781-10.675781-10.675781v-15c14.160156 0 25.675781 11.519531 25.675781 25.675781v28.914063zm0 0"/><path d="m276.148438 417.230469-15.082032-54.324219 14.453125-4.011719 15.082031 54.324219zm-17.757813-63.960938-4.011719-14.453125 14.453125-4.011718 4.011719 14.453124zm-6.6875-24.085937-4.011719-14.453125 14.453125-4.011719 4.011719 14.453125zm0 0"/><path d="m299.390625 206.695312-20.769531-20.769531 10.609375-10.605469 20.765625 20.769532zm-27.839844-27.839843-10.605469-10.605469 10.605469-10.605469 10.605469 10.605469zm-17.675781-17.679688-10.605469-10.605469 10.605469-10.605468 10.605469 10.605468zm0 0"/></svg>