<svg width="20" height="30" viewBox="0 0 20 30" fill="none" xmlns="http://www.w3.org/2000/svg">
<g clip-path="url(#clip0)">
<path d="M9.0099 25.2902L0.410484 16.6905C-0.136826 16.1435 -0.136826 15.2565 0.410484 14.7098C0.957306 14.1629 1.8442 14.1629 2.39098 14.7098L10.0001 22.3192L17.609 14.71C18.1561 14.1632 19.0429 14.1632 19.5897 14.71C20.1368 15.2568 20.1368 16.1437 19.5897 16.6907L10.9902 25.2904C10.7166 25.5639 10.3585 25.7004 10.0002 25.7004C9.6417 25.7004 9.28331 25.5636 9.0099 25.2902Z" fill="#6770FA"/>
</g>
<g clip-path="url(#clip1)">
<path d="M9.0099 15.2902L0.410484 6.69052C-0.136826 6.14347 -0.136826 5.25653 0.410484 4.70975C0.957306 4.16293 1.8442 4.16293 2.39098 4.70975L10.0001 12.3192L17.609 4.70998C18.1561 4.16315 19.0429 4.16315 19.5897 4.70998C20.1368 5.2568 20.1368 6.14369 19.5897 6.69074L10.9902 15.2904C10.7166 15.5639 10.3585 15.7004 10.0002 15.7004C9.6417 15.7004 9.28331 15.5636 9.0099 15.2902Z" fill="#6770FA"/>
</g>
<defs>
<clipPath id="clip0">
<rect width="20" height="20" fill="white" transform="matrix(-4.37114e-08 1 1 4.37114e-08 0 10)"/>
</clipPath>
<clipPath id="clip1">
<rect width="20" height="20" fill="white" transform="matrix(-4.37114e-08 1 1 4.37114e-08 0 0)"/>
</clipPath>
</defs>
</svg>
