<svg width="18" height="14" viewBox="0 0 18 14" fill="none" xmlns="http://www.w3.org/2000/svg">
<path d="M0.207692 7.6923C0.0692308 7.55384 0 7.34615 0 7.20769C0 7.06923 0.0692308 6.86153 0.207692 6.72307L1.17692 5.75384C1.45385 5.47692 1.86923 5.47692 2.14615 5.75384L2.21538 5.82307L6.02308 9.90769C6.16154 10.0462 6.36923 10.0462 6.50769 9.90769L15.7846 0.284612H15.8538C16.1308 0.0076888 16.5462 0.0076888 16.8231 0.284612L17.7923 1.25384C18.0692 1.53077 18.0692 1.94615 17.7923 2.22307L6.71538 13.7154C6.57692 13.8538 6.43846 13.9231 6.23077 13.9231C6.02308 13.9231 5.88462 13.8538 5.74615 13.7154L0.346154 7.9L0.207692 7.6923Z" fill="#6770FA"/>
</svg>
